<?xml version="1.0" encoding="utf-8"?>
<svg version="1.1" id="Capa_1" xmlns="http://www.w3.org/2000/svg" xmlns:xlink="http://www.w3.org/1999/xlink" x="0px" y="0px"
	 width="554.625px" height="554.625px" viewBox="0 0 554.625 554.625" style="enable-background:new 0 0 554.625 554.625;"
	 xml:space="preserve">
<defs>
	<linearGradient id="clipboardGradient" x1="0%" y1="0%" x2="100%" y2="100%">
		<stop offset="0%" style="stop-color:#667eea;stop-opacity:1" />
		<stop offset="100%" style="stop-color:#764ba2;stop-opacity:1" />
	</linearGradient>
	<linearGradient id="pencilGradient" x1="0%" y1="0%" x2="100%" y2="100%">
		<stop offset="0%" style="stop-color:#f093fb;stop-opacity:1" />
		<stop offset="100%" style="stop-color:#f5576c;stop-opacity:1" />
	</linearGradient>
</defs>
<g>
	<g>
		<path d="M112.837,114.75h172.125c9.562,0,19.125-7.65,19.125-19.125V76.5c0-11.475-7.65-19.125-19.125-19.125h-38.25V38.25
			C246.712,17.212,229.5,0,208.462,0h-19.125c-21.038,0-38.25,17.212-38.25,38.25v19.125h-38.25
			c-11.475,0-19.125,7.65-19.125,19.125v19.125C93.712,107.1,101.362,114.75,112.837,114.75z M198.9,38.25
			c5.737,0,9.562,3.825,9.562,9.562s-3.825,9.562-9.562,9.562s-9.562-3.825-9.562-9.562S193.163,38.25,198.9,38.25z" fill="url(#clipboardGradient)"/>
		<path d="M525.937,126.225l-22.949-22.95c-15.301-15.3-38.25-15.3-53.551,0l-68.85,68.85V114.75c0-21.038-17.213-38.25-38.25-38.25
			h-19.125l0,0v19.125c0,21.038-17.213,38.25-38.25,38.25H112.837c-21.038,0-38.25-17.212-38.25-38.25V76.5l0,0H55.462
			c-21.038,0-38.25,17.212-38.25,38.25v401.625c0,21.037,17.212,38.25,38.25,38.25h286.875c21.037,0,38.25-17.213,38.25-38.25
			v-191.25l145.35-145.35C541.238,164.475,541.238,141.525,525.937,126.225z M175.95,453.263l11.475-59.288l47.812,47.812
			L175.95,453.263z M250.538,428.4l-49.725-49.726l216.113-216.112l49.725,49.725L250.538,428.4z M512.55,166.388L480.038,198.9
			l-49.726-49.725l32.513-32.512c7.65-7.65,19.125-7.65,26.775,0l22.95,22.95C520.2,147.263,520.2,158.737,512.55,166.388z" fill="url(#pencilGradient)"/>
	</g>
</g>
</svg>